<svg width="22" height="21" viewBox="0 0 22 21" fill="none" xmlns="http://www.w3.org/2000/svg">
<path d="M3.17082 0C1.59958 0 0.572266 1.03176 0.572266 2.38786C0.572266 3.71402 1.56897 4.7752 3.11053 4.7752H3.14035C4.74233 4.7752 5.7393 3.71402 5.7393 2.38786C5.70935 1.03176 4.74233 0 3.17082 0Z" fill="white"/>
<path d="M0.843774 6.66203H5.43719V20.4815H0.843774V6.66203Z" fill="white"/>
<path d="M16.7119 6.33769C14.2339 6.33769 12.5723 8.66617 12.5723 8.66617V6.66203H7.97872V20.4815H12.572V12.7642C12.572 12.351 12.602 11.9385 12.7233 11.6431C13.0554 10.8181 13.8111 9.96342 15.0801 9.96342C16.7422 9.96342 17.407 11.2307 17.407 13.0885V20.4815H22V12.5577C22 8.31292 19.7338 6.33769 16.7119 6.33769Z" fill="white"/>
</svg>
