<svg width="22" height="18" viewBox="0 0 22 18" fill="none" xmlns="http://www.w3.org/2000/svg">
<path d="M6.73884 17.8419C14.8252 17.8419 19.2472 11.1426 19.2472 5.33348C19.2472 5.14321 19.2433 4.95373 19.2348 4.7653C20.0931 4.14469 20.8391 3.37025 21.4277 2.48874C20.6401 2.83901 19.7922 3.07449 18.9031 3.18103C19.8107 2.63656 20.5076 1.77563 20.8362 0.749324C19.9868 1.25291 19.0461 1.61877 18.0447 1.81638C17.2425 0.96187 16.1002 0.42749 14.8355 0.42749C12.4079 0.42749 10.439 2.39623 10.439 4.82308C10.439 5.16824 10.4777 5.5037 10.553 5.82554C6.89924 5.64169 3.65915 3.89244 1.4911 1.23234C1.11371 1.8819 0.895918 2.63669 0.895918 3.44206C0.895918 4.9671 1.67207 6.31379 2.85221 7.10134C2.13097 7.07919 1.45349 6.88119 0.861192 6.55163C0.860537 6.5701 0.860537 6.58806 0.860537 6.60771C0.860537 8.73684 2.37588 10.5145 4.38773 10.9173C4.0182 11.0179 3.6294 11.072 3.22842 11.072C2.94564 11.072 2.66993 11.0442 2.40209 10.9927C2.96176 12.7394 4.58481 14.0105 6.509 14.0462C5.00427 15.2255 3.10878 15.928 1.04871 15.928C0.694379 15.928 0.34411 15.9077 0 15.8671C1.94568 17.1142 4.25604 17.842 6.73897 17.842" fill="white"/>
</svg>
